<svg xmlns="http://www.w3.org/2000/svg" width="35.877" height="35.877" viewBox="0 0 35.877 35.877"><defs><style>.a{fill:#fbbb00;}.b{fill:#518ef8;}.c{fill:#28b446;}.d{fill:#f14336;}</style></defs><path class="a" d="M7.951,150.26,6.7,154.922l-4.564.1a17.97,17.97,0,0,1-.132-16.751h0l4.064.745,1.78,4.039a10.706,10.706,0,0,0,.1,7.208Z" transform="translate(0 -128.579)"/><path class="b" d="M278.859,208.176a17.931,17.931,0,0,1-6.395,17.34h0l-5.118-.261-.724-4.522a10.691,10.691,0,0,0,4.6-5.459h-9.592v-7.1h17.231Z" transform="translate(-243.295 -193.589)"/><path class="c" d="M57.539,319.655h0a17.944,17.944,0,0,1-27.031-5.488l5.813-4.759A10.669,10.669,0,0,0,51.7,314.871Z" transform="translate(-28.371 -287.728)"/><path class="d" d="M56.007,4.13,50.2,8.887a10.667,10.667,0,0,0-15.727,5.586L28.625,9.689h0A17.942,17.942,0,0,1,56.007,4.13Z" transform="translate(-26.618)"/></svg>